<?xml version="1.0" encoding="UTF-8"?>
<svg width="18px" height="18px" viewBox="0 0 18 18" version="1.1" xmlns="http://www.w3.org/2000/svg" xmlns:xlink="http://www.w3.org/1999/xlink">
    <!-- Generator: sketchtool 59.1 (101010) - https://sketch.com -->
    <title>E8E958B3-98A9-4732-AFEA-548298E2119E</title>
    <desc>Created with sketchtool.</desc>
    <defs>
        <path d="M13.0325443,0 L4.96724279,0 C2.22830678,0 0,2.22841324 0,4.96734926 L0,13.0326507 C0,15.7716932 2.22830678,18 4.96724279,18 L13.0325443,18 C15.7716932,18 18,15.7715868 18,13.0326507 L18,4.96734926 C18,2.22841324 15.7716932,0 13.0325443,0 Z M13.0325443,1.59704724 C14.8909749,1.59704724 16.4030592,3.10902509 16.4030592,4.96734926 L16.4030592,13.0326507 C16.4030592,14.8910814 14.8910814,16.4029528 13.0326507,16.4029528 L4.96724279,16.4029528 C3.10891862,16.4029528 1.59704724,14.8910814 1.59704724,13.0326507 L1.59704724,4.96734926 C1.59704724,3.10902509 3.10891862,1.59704724 4.96724279,1.59704724 L13.0325443,1.59704724 Z M9,4.28571429 C6.4005037,4.28571429 4.28571429,6.40055225 4.28571429,9.00010822 C4.28571429,11.599556 6.4005037,13.7142857 9,13.7142857 C11.5994963,13.7142857 13.7142857,11.599556 13.7142857,9.00010822 C13.7142857,6.40055225 11.5994963,4.28571429 9,4.28571429 Z M9,5.90890816 C10.7044281,5.90890816 12.0910209,7.2955328 12.0910209,9 C12.0910209,10.704359 10.7043199,12.0908754 9,12.0908754 C7.29568015,12.0908754 5.90897911,10.704359 5.90897911,9 C5.90897911,7.2955328 7.29557193,5.90890816 9,5.90890816 Z M14.1428571,2.57142857 C13.8050649,2.57142857 13.4732338,2.70818182 13.2346753,2.94779221 C12.9949481,3.18623377 12.8571429,3.51818182 12.8571429,3.85714286 C12.8571429,4.19505195 12.9950649,4.52688312 13.2346753,4.76649351 C13.4731169,5.00493506 13.8050649,5.14285714 14.1428571,5.14285714 C14.4818182,5.14285714 14.8125974,5.00493506 15.0522078,4.76649351 C15.2918182,4.52688312 15.4285714,4.19493506 15.4285714,3.85714286 C15.4285714,3.51818182 15.2918182,3.18623377 15.0522078,2.94779221 C14.8137662,2.70818182 14.4818182,2.57142857 14.1428571,2.57142857 Z" id="path-1"></path>
    </defs>
    <g id="MVP-(Desktop)" stroke="none" stroke-width="1" fill="none" fill-rule="evenodd">
        <g id="Desktop.ComingSoon" transform="translate(-151.000000, -1301.000000)">
            <g id="Component/Footer" transform="translate(-1.000000, 1185.000000)">
                <g id="Footer">
                    <g id="Social" transform="translate(150.000000, 65.000000)">
                        <g id="Social-Logos" transform="translate(0.000000, 49.000000)">
                            <g id="Instagram-Logo" transform="translate(2.000000, 2.000000)">
                                <mask id="mask-2" fill="white">
                                    <use xlink:href="#path-1"></use>
                                </mask>
                                <use id="Mask" fill="#000000" fill-rule="nonzero" xlink:href="#path-1"></use>
                                <g id=".misc-/-Fill-/-Black" mask="url(#mask-2)" fill="#DDC8B7">
                                    <g transform="translate(-2.000000, -2.000000)" id="Rectangle">
                                        <rect x="0" y="0" width="22" height="22"></rect>
                                    </g>
                                </g>
                            </g>
                        </g>
                    </g>
                </g>
            </g>
        </g>
    </g>
</svg>
