<?xml version="1.0" encoding="UTF-8"?>
<svg width="19px" height="19px" viewBox="0 0 19 19" version="1.1" xmlns="http://www.w3.org/2000/svg" xmlns:xlink="http://www.w3.org/1999/xlink">
    <!-- Generator: Sketch 59.1 (86144) - https://sketch.com -->
    <title>Icon</title>
    <desc>Created with Sketch.</desc>
    <defs>
        <polygon id="path-1" points="0.0198094826 0.0502250984 11.7997441 0.0502250984 11.7997441 12.6855922 0.0198094826 12.6855922"></polygon>
        <polygon id="path-3" points="0 18.3894459 18.391918 18.3894459 18.391918 0 0 0"></polygon>
    </defs>
    <g id="MVP-(Mobile)" stroke="none" stroke-width="1" fill="none" fill-rule="evenodd">
        <g id="Mobile.AgeGate.Error" transform="translate(-64.000000, -546.000000)">
            <g id="Group-4" transform="translate(0.000000, 465.000000)">
                <g id="Group-3">
                    <g id="Social" transform="translate(16.000000, 30.000000)">
                        <g transform="translate(0.000000, 49.000000)" id="-Icons-/-Social-/-LinkedIn">
                            <g transform="translate(46.000000, 0.000000)">
                                <g id="Group-7" transform="translate(2.000000, 2.000000)">
                                    <g id="Group-3" transform="translate(6.592174, 5.699511)">
                                        <mask id="mask-2" fill="white">
                                            <use xlink:href="#path-1"></use>
                                        </mask>
                                        <g id="Clip-2"></g>
                                        <path d="M3.66165596,0.459993655 L3.66165596,1.91406242 C4.05232467,1.54638392 4.36100321,1.20120121 4.72241915,0.924989123 C6.4983508,-0.432586692 9.32935988,-0.177799171 10.7430516,1.46554738 C11.3901559,2.21787923 11.7502534,3.126528 11.7666514,4.10085131 C11.8140326,6.90095958 11.7943385,9.70230388 11.7997774,12.5030714 C11.7997774,12.5550671 11.7846151,12.6070629 11.7724195,12.6855922 L8.05443345,12.6855922 C8.05443345,11.8314937 8.06152004,10.9848113 8.05278541,10.1382938 C8.0373762,8.64195271 8.01990694,7.14561163 7.98834691,5.64960017 C7.96642793,4.6123216 7.38705824,3.80815879 6.53345412,3.58592012 C5.08803759,3.20958939 3.74208048,4.20723251 3.71447575,5.70233756 C3.6743459,7.87099797 3.65868948,10.0400704 3.6328976,12.2090604 C3.63116716,12.3569723 3.6326504,12.505049 3.6326504,12.6836969 L0.0198094826,12.6836969 L0.0198094826,0.459993655 L3.66165596,0.459993655 Z" id="Fill-1" fill="#DDC8B7" mask="url(#mask-2)"></path>
                                    </g>
                                    <mask id="mask-4" fill="white">
                                        <use xlink:href="#path-3"></use>
                                    </mask>
                                    <g id="Clip-5"></g>
                                    <polygon id="Fill-4" fill="#DDC8B7" mask="url(#mask-4)" points="0.395200826 18.3894459 4.12447601 18.3894459 4.12447601 6.14777899 0.395200826 6.14777899"></polygon>
                                    <path d="M2.22222183,4.51150254 C1.0043177,4.51900114 -0.00881703261,3.48147537 8.24021739e-05,2.2356369 C0.00889943478,0.990045639 0.992698989,-0.00619664348 2.20780145,6.59217391e-05 C3.52022087,0.0068229 4.46487939,0.954035889 4.4627442,2.26068716 C4.46059448,3.52036919 3.48173905,4.50367433 2.22222183,4.51150254 Z" id="Fill-6" fill="#DDC8B7" mask="url(#mask-4)"></path>
                                </g>
                            </g>
                        </g>
                    </g>
                </g>
            </g>
        </g>
    </g>
</svg>