<?xml version="1.0" standalone="no"?>
<!DOCTYPE svg PUBLIC "-//W3C//DTD SVG 20010904//EN"
 "http://www.w3.org/TR/2001/REC-SVG-20010904/DTD/svg10.dtd">
<svg version="1.0" xmlns="http://www.w3.org/2000/svg"
 width="423.000000pt" height="423.000000pt" viewBox="0 0 423.000000 423.000000"
 preserveAspectRatio="xMidYMid meet">
<metadata>
Created by potrace 1.11, written by Peter Selinger 2001-2013
</metadata>
<g transform="translate(0.000000,423.000000) scale(0.100000,-0.100000)"
fill="#000000" stroke="none">
<path d="M1960 4224 c-374 -35 -708 -148 -1000 -341 -526 -347 -855 -879 -940
-1516 -15 -115 -12 -389 5 -522 117 -889 792 -1611 1675 -1790 703 -143 1447
92 1939 612 310 326 504 728 565 1171 18 130 21 411 6 529 -63 470 -253 874
-564 1201 -329 345 -754 567 -1216 637 -104 15 -384 27 -470 19z m-335 -1079
c29 -28 31 -40 8 -49 -10 -4 -20 -1 -25 8 -24 44 -103 38 -96 -6 2 -18 16 -26
66 -40 74 -22 93 -47 73 -96 -33 -78 -191 -62 -191 19 0 15 40 10 46 -5 9 -23
58 -36 85 -22 40 20 31 49 -21 64 -80 23 -95 34 -98 74 -4 50 26 78 85 78 33
0 50 -6 68 -25z m303 -102 c-3 -112 -5 -128 -20 -131 -16 -3 -18 8 -18 127 0
125 1 131 20 131 20 0 20 -5 18 -127z m322 34 c26 -48 49 -89 52 -93 3 -3 29
38 57 90 72 133 81 129 81 -34 0 -107 -3 -130 -15 -130 -11 0 -15 18 -17 83
l-3 82 -45 -79 c-25 -44 -49 -79 -55 -79 -5 0 -30 35 -55 79 l-45 79 -3 -82
c-2 -65 -6 -83 -17 -83 -12 0 -15 23 -15 131 0 161 11 166 80 36z m613 65 c28
-29 28 -85 -1 -114 -16 -16 -37 -23 -82 -26 l-60 -4 0 -45 c0 -37 -3 -44 -17
-41 -16 3 -18 19 -21 132 l-3 129 81 -5 c66 -4 85 -9 103 -26z m287 -82 l0
-110 70 0 c63 0 70 -2 70 -20 0 -19 -7 -20 -90 -20 l-90 0 0 130 c0 123 1 130
20 130 19 0 20 -7 20 -110z m375 45 l39 -65 40 65 c25 40 48 65 58 65 10 0 18
-4 18 -8 0 -4 -22 -44 -50 -89 -39 -63 -50 -91 -50 -122 0 -30 -4 -41 -15 -41
-11 0 -15 11 -15 41 0 31 -11 59 -50 122 -27 45 -50 85 -50 89 0 4 8 8 18 8
10 0 32 -25 57 -65z m-2835 -306 l0 -261 46 41 c64 56 125 74 233 69 160 -8
256 -84 321 -253 18 -46 23 -80 23 -150 0 -103 -19 -168 -76 -258 -111 -173
-378 -204 -514 -60 l-33 34 0 -50 0 -51 -70 0 -70 0 0 600 0 600 70 0 70 0 0
-261z m2241 -166 c-39 -77 -86 -107 -239 -152 -115 -34 -148 -49 -179 -83 -48
-51 -53 -82 -53 -323 l0 -225 -70 0 -70 0 0 390 0 390 70 0 70 0 1 -122 0
-123 20 52 c24 62 94 144 154 179 54 31 149 52 243 53 l72 1 -19 -37z m-1015
-4 c54 -21 105 -67 126 -114 8 -21 14 -115 18 -303 5 -274 5 -274 29 -293 28
-23 54 -18 92 17 29 28 39 30 39 9 0 -51 -83 -107 -157 -107 -73 0 -117 42
-131 123 l-8 44 -17 -31 c-47 -89 -176 -153 -280 -140 -51 7 -118 36 -151 65
-49 43 -70 142 -45 208 35 94 167 161 379 193 136 20 124 10 117 95 -14 164
-81 230 -213 210 -29 -4 -57 -17 -77 -35 -30 -27 -32 -32 -32 -98 0 -83 -12
-102 -66 -102 -45 0 -69 27 -69 78 0 155 247 255 446 181z m1546 -6 c96 -44
183 -157 203 -265 l7 -38 -311 0 -311 0 0 -65 c0 -123 70 -237 181 -296 62
-33 204 -34 265 -2 50 27 103 85 128 141 13 28 25 42 38 42 17 0 19 -5 13 -32
-31 -146 -145 -245 -310 -269 -134 -20 -252 16 -340 106 -77 79 -108 150 -113
263 -10 213 87 370 263 426 72 23 224 17 287 -11z m86 -950 c-14 -3 -18 -15
-18 -49 0 -24 -4 -44 -10 -44 -5 0 -10 20 -10 44 0 34 -4 46 -17 49 -10 3 2 5
27 5 25 0 37 -2 28 -5z m76 -33 l10 -33 11 34 c17 51 39 44 43 -13 2 -29 -1
-48 -7 -48 -6 0 -11 17 -12 38 l-1 37 -12 -34 c-17 -47 -30 -48 -43 -4 l-10
38 -2 -37 c-1 -43 -21 -53 -21 -10 1 73 27 93 44 32z m-314 -35 c0 -13 -161
-15 -1385 -15 -1224 0 -1385 2 -1385 15 0 13 161 15 1385 15 1224 0 1385 -2
1385 -15z m-2470 -234 c118 -91 77 -270 -67 -297 -105 -20 -195 58 -195 167 0
137 154 213 262 130z m981 18 c9 -5 29 -23 44 -41 27 -32 27 -32 6 -42 -17 -7
-27 -4 -52 20 -25 24 -39 29 -79 29 -40 0 -54 -5 -79 -29 -81 -77 -29 -206 83
-206 30 0 45 7 72 34 19 19 34 39 34 45 0 7 -24 11 -65 11 -63 0 -65 1 -65 25
0 25 1 25 91 25 l92 0 -6 -46 c-13 -116 -131 -177 -237 -122 -133 68 -110 273
34 309 34 8 101 2 127 -12z m1792 -6 c25 -12 67 -66 67 -85 0 -4 -10 -10 -22
-14 -15 -4 -25 -1 -34 12 -40 59 -88 75 -147 51 -103 -44 -82 -209 29 -224 52
-6 91 10 112 47 13 22 22 28 37 24 28 -9 28 -9 11 -42 -27 -53 -72 -77 -143
-77 -69 0 -101 17 -140 75 -44 64 -24 176 39 223 50 37 129 41 191 10z m-2283
2 c35 -18 50 -43 50 -85 0 -38 -47 -90 -80 -90 -20 0 -15 -9 35 -65 l57 -65
-34 1 c-28 0 -41 10 -83 59 -38 45 -56 59 -77 60 -27 0 -28 -1 -28 -60 0 -57
-1 -60 -25 -60 l-25 0 0 160 0 160 90 0 c62 0 100 -5 120 -15z m987 -128 c84
-192 80 -177 49 -177 -20 0 -29 8 -40 35 l-15 35 -80 0 -81 0 -14 -35 c-12
-28 -21 -35 -42 -35 -31 0 -35 -17 49 177 56 129 64 143 87 143 23 0 31 -14
87 -143z m407 27 l96 -116 0 116 0 116 25 0 25 0 0 -160 c0 -159 0 -160 -22
-159 -17 0 -49 31 -113 109 -49 60 -93 110 -97 110 -5 0 -8 -49 -8 -110 l0
-110 -25 0 -25 0 0 160 0 160 24 0 c17 0 46 -28 120 -116z m426 -44 l0 -160
-25 0 -25 0 0 160 0 160 25 0 25 0 0 -160z"/>
<path d="M2720 3085 l0 -45 48 0 c35 0 54 5 65 18 36 40 7 72 -64 72 l-49 0 0
-45z"/>
<path d="M795 2569 c-16 -4 -47 -22 -67 -39 l-38 -31 0 -248 c0 -237 1 -250
21 -275 49 -63 144 -87 237 -61 84 24 130 66 173 157 31 68 34 80 34 173 0 97
-2 104 -37 177 -39 78 -77 116 -143 144 -38 15 -132 17 -180 3z"/>
<path d="M1773 2246 c-146 -40 -207 -99 -200 -194 5 -65 28 -100 90 -131 56
-28 116 -23 168 12 67 46 84 88 95 245 l7 92 -39 -1 c-21 0 -76 -11 -121 -23z"/>
<path d="M3240 2601 c-96 -31 -180 -125 -180 -201 0 -20 5 -20 225 -20 124 0
225 3 225 8 -1 33 -25 103 -46 133 -44 64 -153 103 -224 80z"/>
<path d="M693 1346 c-86 -39 -88 -169 -2 -213 60 -31 138 0 159 62 34 102 -61
194 -157 151z"/>
<path d="M1170 1300 l0 -50 58 0 c63 0 102 19 102 50 0 36 -27 50 -96 50 l-64
0 0 -50z"/>
<path d="M2199 1265 l-27 -65 58 0 59 0 -27 65 c-15 36 -29 65 -32 65 -3 0
-17 -29 -31 -65z"/>
</g>
</svg>
