<svg xmlns="http://www.w3.org/2000/svg" style="isolation:isolate" viewBox="76.625 264.66497802734375 443.4449462890625 295.6829833984375">
    <defs>
        <clipPath id="a">
            <path d="M0 0h612v792H0z"></path>
        </clipPath>
    </defs>
    <g clip-path="url(#a)">
        <path d="M462.126 484.934H76.625v-5h385.501v5z" fill="#ddc8b7"></path>
        <clipPath id="b">
            <path d="M0 0h612v792H0V0z" fill="#ddc8b7"></path>
        </clipPath>
        <g clip-path="url(#b)" fill="#ddc8b7">
            <path d="M98.941 354.269c-.019.028-.062.04-.131.041.069-.001.112-.013.131-.041zM148.604 450.812zM97.918 449.713v-15.076 15.076zM347.034 392.551c.085-12.378 5.997-21.243 17.288-26.203 3.758-1.651 7.985-2.203 11.936-3.456 7.411-2.35 15.113-4.139 22.076-7.459 8.414-4.013 13.951-11.204 17.319-19.917-32.259-2.16-58.187 5.742-68.662 40.187v-34.906h-19.698v108.996H347c0-19.329-.096-38.286.034-57.242zM182.545 374.096zM184.983 382.858zM186.152 391.638zM186.192 398.22zM179.885 367.551zM148.367 339.318zM105.938 346.465zM168.828 351.091zM100.455 352.102zM98.811 354.31zM170.253 437.705a44.052 44.052 0 005.323-6.975c2.187-3.546 4.036-7.124 5.55-10.722-1.514 3.598-3.363 7.176-5.55 10.722a44.052 44.052 0 01-5.323 6.975zM78.259 280.252v169.46-169.46zM97.918 434.637c4.669 6.6 10.814 11.345 17.668 14.329-6.854-2.984-13-7.729-17.668-14.329zM163.82 443.396zM183.488 413.509zM159.036 446.462zM129.077 452.519zM120.847 450.875z"></path>
            <path d="M155.792 425.338c-11.479 19.855-37.933 23.705-54.585 8.604-1.806-1.636-3.141-4.714-3.222-7.171-.348-10.639-.149-21.295-.149-31.945 0-10.318.143-20.637-.078-30.95-.076-3.536 1.189-5.868 3.765-8.11 16.476-14.33 42.752-10.532 54.073 8.815 11.641 19.896 11.739 40.791.196 60.757zm30.36-33.7a61.505 61.505 0 00-.425-4.391 63.724 63.724 0 00-.744-4.389 67.447 67.447 0 00-2.438-8.762 76.207 76.207 0 00-2.66-6.545 83.31 83.31 0 00-3.369-6.511 46.068 46.068 0 00-3.562-5.32 45.46 45.46 0 00-4.126-4.629c-4.38-4.287-9.479-7.55-14.92-9.825a50.948 50.948 0 00-5.541-1.948c-13.129-3.783-27.43-2.256-38.096 4.119a36.715 36.715 0 00-4.333 3.028 34.337 34.337 0 00-1.975 1.734 32.665 32.665 0 00-3.508 3.903 31.4 31.4 0 00-1.514 2.167c-.018.028-.062.04-.13.041a1.776 1.776 0 01-.27-.027c-.223-.032-.528-.088-.895-.123v-73.907H78.259v169.46h19.659v-15.076c4.668 6.599 10.814 11.345 17.668 14.329a45.204 45.204 0 005.261 1.909 47.6 47.6 0 008.23 1.644c1.86.204 3.733.301 5.609.295a50.993 50.993 0 0013.918-2.002 50.722 50.722 0 005.335-1.874 48.677 48.677 0 005.097-2.476 47.215 47.215 0 004.784-3.066 45.508 45.508 0 006.433-5.691 44.089 44.089 0 005.323-6.974c2.187-3.547 4.036-7.124 5.55-10.723a68.953 68.953 0 002.362-6.499 64.374 64.374 0 001.64-6.535 61.024 61.024 0 001.131-10.948 61.214 61.214 0 00-.107-4.388zM269.603 423.976c-3.188 14.29-17.358 21.907-31.188 18.467-8.745-2.175-14.278-7.812-16.166-16.465-1.964-9.002.476-16.833 8.224-22.427 9.87-7.127 21.501-9.316 33.099-11.525 2.55-.485 5.144-.734 9.128-1.287-.982 11.61-.747 22.713-3.097 33.237zm43.131 10.499l-1.874.246c-.998 1.314-1.914 2.701-3.01 3.927-3.115 3.486-6.993 5.326-11.609 3.897-4.479-1.385-4.739-5.569-5.197-9.393-.157-1.315-.043-2.663-.043-3.996-.002-17.997.241-35.998-.082-53.99-.238-13.322-3.045-26.492-16.405-32.478-19.05-8.535-38.322-7.837-55.961 4.526-7.107 4.981-11.507 12.042-11.015 21.241.309 5.778 3.943 9.219 9.606 9.376 7.293.203 11.249-4.533 9.501-13.345-2.561-12.908 6.315-19.6 17.191-20.446 9.198-.714 17.975.285 23.031 9.373 5.471 9.834 5.018 20.657 4.787 31.367-9.255 1.459-18.018 2.521-26.64 4.275-12.939 2.632-25.661 6.123-35.889 15.178-12.006 10.63-12.224 28.845-.626 39.318 19.013 17.171 51.937 10.283 62.143-12.995.22-.501.538-.958 1.211-2.136.173 2.708.172 4.548.428 6.352 1.03 7.274 3.636 13.536 11.102 16.486 10.918 4.317 25.3-1.545 29.914-12.375.501-1.176-.343-2.925-.563-4.408zM461.954 344.066c18.598-1.139 32.428 12.628 32.053 32.526h-62.508c-2.287-14.589 13.606-31.494 30.455-32.526zm49.428 69.494c-5.787 15.97-17.301 24.427-34.352 26.028-28.376 2.666-53.823-27.311-46.3-55.399h86.155c0-1.276.103-1.955-.015-2.594-6.824-37.109-37.19-48.071-63.048-42.941-21.029 4.173-35.319 17.198-41.25 37.722-6.261 21.665-3.802 42.516 12.136 59.753 14.703 15.899 33.798 19.071 54.184 15.464 21.854-3.866 38.239-21.582 39.53-41.698-3.572-1.121-5.603-.301-7.04 3.665zM346.991 375.704v-34.906h-19.698v108.995H347c0-19.329-.096-38.286.034-57.241.085-12.378 5.997-21.244 17.288-26.203 3.758-1.651 7.985-2.204 11.936-3.456 7.411-2.35 15.113-4.139 22.076-7.46 8.414-4.012 13.951-11.203 17.319-19.917-32.259-2.159-58.187 5.743-68.662 40.188zM121.706 536.686c0-9.655-7.207-16.93-16.454-16.93-9.179 0-16.386 7.275-16.386 16.93 0 9.587 7.207 16.795 16.386 16.795 9.247 0 16.454-7.208 16.454-16.795zm7.344 0c0 13.19-10.471 23.662-23.798 23.662-13.326 0-23.73-10.472-23.73-23.662 0-13.259 10.404-23.798 23.73-23.798 13.327 0 23.798 10.539 23.798 23.798zM179.507 534.646c5.031 0 8.363-2.855 8.363-7.07 0-4.284-3.332-7.14-8.363-7.14h-14.143v14.21h14.143zm8.703 24.75l-16.25-18.154h-6.596v18.154h-7.275V513.84h21.418c9.383 0 15.639 5.508 15.639 13.736 0 7.818-5.711 13.122-14.347 13.597l16.454 18.223h-9.043zM268.178 533.558c.068 1.225.136 2.313.136 3.128 0 13.394-9.451 23.662-22.982 23.662-13.463 0-23.933-10.403-23.933-23.729 0-13.259 10.403-23.731 23.729-23.731 9.723 0 18.426 4.692 21.69 13.463l-6.595 2.312c-3.196-6.527-8.976-8.907-15.095-8.907-9.179 0-16.318 7.343-16.318 16.863 0 9.586 7.275 16.862 16.726 16.862 8.364 0 14.279-5.372 15.639-13.259h-18.087v-6.664h25.09zM314.557 522.747l-8.228 19.378h16.455l-8.227-19.378zm15.57 36.648l-4.487-10.607h-22.166l-4.487 10.607h-7.888l20.059-45.555h6.798l20.058 45.555h-7.887zM405.197 559.396h-6.187l-27.538-32.706v32.706h-7.275v-45.557h6.187l27.47 33.25v-33.25h7.343v45.557zM436.412 513.84h7.275v45.556h-7.275V513.84zM511.548 541.989l7.071 1.496c-2.515 10.675-11.354 16.862-22.097 16.862-13.259 0-23.73-10.403-23.73-23.729 0-13.259 10.471-23.731 23.73-23.731 10.743 0 19.514 6.256 22.097 16.319l-7.071 2.04c-2.039-7.683-7.887-11.49-15.026-11.49-9.179 0-16.386 7.274-16.386 16.862 0 9.587 7.207 16.862 16.386 16.862 7.139 0 12.987-3.807 15.026-11.491zM233.513 274.682l-5.671 1.165c-.636-3.763-3.868-6.253-8.107-6.253-4.187 0-6.943 2.278-6.943 5.405 0 2.492 1.431 3.816 4.504 4.452l7.685 1.643c5.299 1.166 9.115 4.133 9.115 9.697 0 6.678-5.459 10.865-13.62 10.865-7.525 0-13.778-3.658-14.679-10.546l6.041-1.273c.848 4.558 4.399 6.783 9.168 6.783 4.77 0 7.472-2.278 7.472-5.51 0-2.703-1.431-3.975-4.982-4.717l-7.736-1.59c-4.398-1.007-8.956-3.338-8.956-9.644 0-6.253 5.141-10.494 13.036-10.494 7.207 0 12.401 3.922 13.673 10.017zM266.322 265.407h5.67v35.506h-5.67v-35.506zM344.545 300.913h-5.512v-22.682l-12.188 22.682h-3.497l-12.189-22.682v22.682h-5.511v-35.506h4.981l14.467 26.868 14.52-26.868h4.929v35.506zM394.209 283.213c4.452 0 7.102-2.543 7.102-6.359 0-3.657-2.65-6.306-7.102-6.306h-10.334v12.665h10.334zm0-17.806c7.844 0 12.771 4.663 12.771 11.447 0 6.889-4.927 11.552-12.771 11.552h-10.334v12.507h-5.67v-35.506h16.004zM463.426 300.913H438.36v-35.506h5.67v30.365h19.396v5.141zM505.085 300.913h-5.67v-11.765l-14.361-23.741h6.305l10.917 17.806 10.864-17.806h6.518l-14.573 23.636v11.87zM494.221 476.32h-4.233v-2.276h11.218v2.276h-4.274v12.554h-2.711V476.32zM517.142 482.824c-.09-1.916-.187-4.219-.177-6.239h-.06a95.345 95.345 0 01-1.75 5.696l-2.177 6.417h-2.084l-1.967-6.329a67.804 67.804 0 01-1.5-5.784h-.049a286.182 286.182 0 01-.265 6.329l-.33 5.96h-2.526l.988-14.83h3.559l1.932 5.956a64.68 64.68 0 011.364 5.165h.064c.399-1.62.909-3.432 1.483-5.177l2.057-5.944h3.514l.852 14.83h-2.64l-.288-6.05z"></path>
        </g>
    </g>
</svg>
